<mxfile host="app.diagrams.net" agent="Mozilla/5.0 (Windows NT 10.0; Win64; x64; rv:128.0) Gecko/20100101 Firefox/128.0" version="24.7.16">
  <diagram name="Page-1" id="zmvljCD9i29hnBtrxJbT">
    <mxGraphModel dx="1075" dy="620" grid="1" gridSize="10" guides="1" tooltips="1" connect="1" arrows="1" fold="1" page="1" pageScale="1" pageWidth="850" pageHeight="1100" math="0" shadow="0">
      <root>
        <mxCell id="0" />
        <mxCell id="1" parent="0" />
        <mxCell id="nYl2s45a3TRGOCxfImMN-14" style="edgeStyle=orthogonalEdgeStyle;rounded=0;orthogonalLoop=1;jettySize=auto;html=1;" parent="1" source="_qSzUz26SdkXJ-6-slCd-1" target="nYl2s45a3TRGOCxfImMN-1" edge="1">
          <mxGeometry relative="1" as="geometry">
            <Array as="points">
              <mxPoint x="420" y="200" />
              <mxPoint x="279" y="200" />
            </Array>
          </mxGeometry>
        </mxCell>
        <mxCell id="nYl2s45a3TRGOCxfImMN-15" style="edgeStyle=orthogonalEdgeStyle;rounded=0;orthogonalLoop=1;jettySize=auto;html=1;" parent="1" source="_qSzUz26SdkXJ-6-slCd-1" target="nYl2s45a3TRGOCxfImMN-2" edge="1">
          <mxGeometry relative="1" as="geometry">
            <Array as="points">
              <mxPoint x="420" y="200" />
              <mxPoint x="374" y="200" />
            </Array>
          </mxGeometry>
        </mxCell>
        <mxCell id="Ig4KtCtxgGd4tIVDMaJ4-12" style="edgeStyle=orthogonalEdgeStyle;rounded=0;orthogonalLoop=1;jettySize=auto;html=1;entryX=0.5;entryY=1;entryDx=0;entryDy=0;" parent="1" source="_qSzUz26SdkXJ-6-slCd-1" target="Ig4KtCtxgGd4tIVDMaJ4-10" edge="1">
          <mxGeometry relative="1" as="geometry">
            <Array as="points">
              <mxPoint x="420" y="200" />
              <mxPoint x="191" y="200" />
              <mxPoint x="191" y="150" />
            </Array>
          </mxGeometry>
        </mxCell>
        <mxCell id="Ig4KtCtxgGd4tIVDMaJ4-13" style="edgeStyle=orthogonalEdgeStyle;rounded=0;orthogonalLoop=1;jettySize=auto;html=1;entryX=0.5;entryY=1;entryDx=0;entryDy=0;" parent="1" source="_qSzUz26SdkXJ-6-slCd-1" target="nYl2s45a3TRGOCxfImMN-3" edge="1">
          <mxGeometry relative="1" as="geometry">
            <Array as="points">
              <mxPoint x="420" y="200" />
              <mxPoint x="469" y="200" />
              <mxPoint x="469" y="150" />
            </Array>
          </mxGeometry>
        </mxCell>
        <mxCell id="yp_OT4ayscLrx89KI9gV-3" style="edgeStyle=orthogonalEdgeStyle;rounded=0;orthogonalLoop=1;jettySize=auto;html=1;entryX=0.5;entryY=1;entryDx=0;entryDy=0;" parent="1" source="_qSzUz26SdkXJ-6-slCd-1" target="yp_OT4ayscLrx89KI9gV-1" edge="1">
          <mxGeometry relative="1" as="geometry">
            <Array as="points">
              <mxPoint x="420" y="200" />
              <mxPoint x="560" y="200" />
            </Array>
          </mxGeometry>
        </mxCell>
        <mxCell id="yp_OT4ayscLrx89KI9gV-4" style="edgeStyle=orthogonalEdgeStyle;rounded=0;orthogonalLoop=1;jettySize=auto;html=1;" parent="1" source="_qSzUz26SdkXJ-6-slCd-1" target="yp_OT4ayscLrx89KI9gV-2" edge="1">
          <mxGeometry relative="1" as="geometry">
            <Array as="points">
              <mxPoint x="420" y="200" />
              <mxPoint x="650" y="200" />
            </Array>
          </mxGeometry>
        </mxCell>
        <mxCell id="_qSzUz26SdkXJ-6-slCd-1" value="Person" style="rounded=0;whiteSpace=wrap;html=1;" parent="1" vertex="1">
          <mxGeometry x="360" y="220" width="120" height="60" as="geometry" />
        </mxCell>
        <mxCell id="nYl2s45a3TRGOCxfImMN-1" value="Age" style="ellipse;whiteSpace=wrap;html=1;" parent="1" vertex="1">
          <mxGeometry x="243.5" y="110" width="70" height="40" as="geometry" />
        </mxCell>
        <mxCell id="nYl2s45a3TRGOCxfImMN-2" value="Weight" style="ellipse;whiteSpace=wrap;html=1;" parent="1" vertex="1">
          <mxGeometry x="338.5" y="110" width="70" height="40" as="geometry" />
        </mxCell>
        <mxCell id="nYl2s45a3TRGOCxfImMN-3" value="Height" style="ellipse;whiteSpace=wrap;html=1;" parent="1" vertex="1">
          <mxGeometry x="433.5" y="110" width="70" height="40" as="geometry" />
        </mxCell>
        <mxCell id="nYl2s45a3TRGOCxfImMN-32" value="M:1" style="edgeStyle=orthogonalEdgeStyle;rounded=0;orthogonalLoop=1;jettySize=auto;html=1;" parent="1" source="nYl2s45a3TRGOCxfImMN-10" target="nYl2s45a3TRGOCxfImMN-31" edge="1">
          <mxGeometry relative="1" as="geometry" />
        </mxCell>
        <mxCell id="nYl2s45a3TRGOCxfImMN-41" style="edgeStyle=orthogonalEdgeStyle;rounded=0;orthogonalLoop=1;jettySize=auto;html=1;entryX=0;entryY=0.5;entryDx=0;entryDy=0;" parent="1" source="nYl2s45a3TRGOCxfImMN-10" target="nYl2s45a3TRGOCxfImMN-22" edge="1">
          <mxGeometry relative="1" as="geometry">
            <Array as="points">
              <mxPoint x="510" y="460" />
              <mxPoint x="510" y="265" />
            </Array>
          </mxGeometry>
        </mxCell>
        <mxCell id="yp_OT4ayscLrx89KI9gV-5" value="M:1" style="edgeStyle=orthogonalEdgeStyle;rounded=0;orthogonalLoop=1;jettySize=auto;html=1;" parent="1" source="nYl2s45a3TRGOCxfImMN-10" target="_qSzUz26SdkXJ-6-slCd-1" edge="1">
          <mxGeometry relative="1" as="geometry" />
        </mxCell>
        <mxCell id="yp_OT4ayscLrx89KI9gV-13" style="edgeStyle=orthogonalEdgeStyle;rounded=0;orthogonalLoop=1;jettySize=auto;html=1;entryX=0;entryY=0.5;entryDx=0;entryDy=0;" parent="1" source="nYl2s45a3TRGOCxfImMN-10" target="nYl2s45a3TRGOCxfImMN-18" edge="1">
          <mxGeometry relative="1" as="geometry">
            <Array as="points">
              <mxPoint x="510" y="460" />
              <mxPoint x="510" y="315" />
            </Array>
          </mxGeometry>
        </mxCell>
        <mxCell id="yp_OT4ayscLrx89KI9gV-14" style="edgeStyle=orthogonalEdgeStyle;rounded=0;orthogonalLoop=1;jettySize=auto;html=1;" parent="1" source="nYl2s45a3TRGOCxfImMN-10" target="nYl2s45a3TRGOCxfImMN-19" edge="1">
          <mxGeometry relative="1" as="geometry">
            <Array as="points">
              <mxPoint x="510" y="460" />
              <mxPoint x="510" y="365" />
            </Array>
          </mxGeometry>
        </mxCell>
        <mxCell id="yp_OT4ayscLrx89KI9gV-15" style="edgeStyle=orthogonalEdgeStyle;rounded=0;orthogonalLoop=1;jettySize=auto;html=1;entryX=0;entryY=0.5;entryDx=0;entryDy=0;" parent="1" source="nYl2s45a3TRGOCxfImMN-10" target="nYl2s45a3TRGOCxfImMN-21" edge="1">
          <mxGeometry relative="1" as="geometry">
            <Array as="points">
              <mxPoint x="510" y="460" />
              <mxPoint x="510" y="415" />
            </Array>
          </mxGeometry>
        </mxCell>
        <mxCell id="yp_OT4ayscLrx89KI9gV-17" style="edgeStyle=orthogonalEdgeStyle;rounded=0;orthogonalLoop=1;jettySize=auto;html=1;entryX=0;entryY=0.5;entryDx=0;entryDy=0;" parent="1" source="nYl2s45a3TRGOCxfImMN-10" target="yp_OT4ayscLrx89KI9gV-10" edge="1">
          <mxGeometry relative="1" as="geometry" />
        </mxCell>
        <mxCell id="yp_OT4ayscLrx89KI9gV-19" style="edgeStyle=orthogonalEdgeStyle;rounded=0;orthogonalLoop=1;jettySize=auto;html=1;entryX=0;entryY=0.5;entryDx=0;entryDy=0;" parent="1" source="nYl2s45a3TRGOCxfImMN-10" target="yp_OT4ayscLrx89KI9gV-9" edge="1">
          <mxGeometry relative="1" as="geometry" />
        </mxCell>
        <mxCell id="yp_OT4ayscLrx89KI9gV-20" style="edgeStyle=orthogonalEdgeStyle;rounded=0;orthogonalLoop=1;jettySize=auto;html=1;entryX=0;entryY=0.5;entryDx=0;entryDy=0;" parent="1" source="nYl2s45a3TRGOCxfImMN-10" target="nYl2s45a3TRGOCxfImMN-35" edge="1">
          <mxGeometry relative="1" as="geometry" />
        </mxCell>
        <mxCell id="yp_OT4ayscLrx89KI9gV-21" style="edgeStyle=orthogonalEdgeStyle;rounded=0;orthogonalLoop=1;jettySize=auto;html=1;entryX=0;entryY=0.5;entryDx=0;entryDy=0;" parent="1" source="nYl2s45a3TRGOCxfImMN-10" target="nYl2s45a3TRGOCxfImMN-34" edge="1">
          <mxGeometry relative="1" as="geometry" />
        </mxCell>
        <mxCell id="yp_OT4ayscLrx89KI9gV-22" style="edgeStyle=orthogonalEdgeStyle;rounded=0;orthogonalLoop=1;jettySize=auto;html=1;entryX=0;entryY=0.5;entryDx=0;entryDy=0;" parent="1" source="nYl2s45a3TRGOCxfImMN-10" target="yp_OT4ayscLrx89KI9gV-12" edge="1">
          <mxGeometry relative="1" as="geometry" />
        </mxCell>
        <mxCell id="Lf87m-T9IHcp5UpW5rNt-2" style="edgeStyle=orthogonalEdgeStyle;rounded=0;orthogonalLoop=1;jettySize=auto;html=1;entryX=0;entryY=0.5;entryDx=0;entryDy=0;" parent="1" source="nYl2s45a3TRGOCxfImMN-10" target="nYl2s45a3TRGOCxfImMN-20" edge="1">
          <mxGeometry relative="1" as="geometry" />
        </mxCell>
        <mxCell id="Z6NKToVQK897q_Tgx5O5-2" style="edgeStyle=orthogonalEdgeStyle;rounded=0;orthogonalLoop=1;jettySize=auto;html=1;entryX=0;entryY=0.5;entryDx=0;entryDy=0;" edge="1" parent="1" source="nYl2s45a3TRGOCxfImMN-10" target="yp_OT4ayscLrx89KI9gV-11">
          <mxGeometry relative="1" as="geometry">
            <Array as="points">
              <mxPoint x="510" y="460" />
              <mxPoint x="510" y="688" />
            </Array>
          </mxGeometry>
        </mxCell>
        <mxCell id="nYl2s45a3TRGOCxfImMN-10" value="&lt;div&gt;Evaluation&lt;/div&gt;" style="rounded=0;whiteSpace=wrap;html=1;" parent="1" vertex="1">
          <mxGeometry x="360" y="430" width="120" height="60" as="geometry" />
        </mxCell>
        <mxCell id="nYl2s45a3TRGOCxfImMN-18" value="Distance" style="ellipse;whiteSpace=wrap;html=1;" parent="1" vertex="1">
          <mxGeometry x="550" y="295" width="70" height="40" as="geometry" />
        </mxCell>
        <mxCell id="nYl2s45a3TRGOCxfImMN-19" value="Date" style="ellipse;whiteSpace=wrap;html=1;" parent="1" vertex="1">
          <mxGeometry x="550" y="345" width="70" height="40" as="geometry" />
        </mxCell>
        <mxCell id="nYl2s45a3TRGOCxfImMN-20" value="City" style="ellipse;whiteSpace=wrap;html=1;" parent="1" vertex="1">
          <mxGeometry x="550" y="440" width="70" height="40" as="geometry" />
        </mxCell>
        <mxCell id="nYl2s45a3TRGOCxfImMN-21" value="Start Time" style="ellipse;whiteSpace=wrap;html=1;" parent="1" vertex="1">
          <mxGeometry x="550" y="395" width="70" height="40" as="geometry" />
        </mxCell>
        <mxCell id="nYl2s45a3TRGOCxfImMN-22" value="&lt;u&gt;ID&lt;/u&gt;" style="ellipse;whiteSpace=wrap;html=1;" parent="1" vertex="1">
          <mxGeometry x="550" y="245" width="70" height="40" as="geometry" />
        </mxCell>
        <mxCell id="nYl2s45a3TRGOCxfImMN-23" value="Type" style="ellipse;whiteSpace=wrap;html=1;" parent="1" vertex="1">
          <mxGeometry x="220" y="531.19" width="72" height="40" as="geometry" />
        </mxCell>
        <mxCell id="Ig4KtCtxgGd4tIVDMaJ4-14" style="edgeStyle=orthogonalEdgeStyle;rounded=0;orthogonalLoop=1;jettySize=auto;html=1;entryX=1;entryY=0.5;entryDx=0;entryDy=0;" parent="1" source="nYl2s45a3TRGOCxfImMN-31" target="Ig4KtCtxgGd4tIVDMaJ4-9" edge="1">
          <mxGeometry relative="1" as="geometry" />
        </mxCell>
        <mxCell id="yp_OT4ayscLrx89KI9gV-8" style="edgeStyle=orthogonalEdgeStyle;rounded=0;orthogonalLoop=1;jettySize=auto;html=1;entryX=1;entryY=0.5;entryDx=0;entryDy=0;" parent="1" source="nYl2s45a3TRGOCxfImMN-31" target="nYl2s45a3TRGOCxfImMN-23" edge="1">
          <mxGeometry relative="1" as="geometry" />
        </mxCell>
        <mxCell id="nYl2s45a3TRGOCxfImMN-31" value="Workout" style="rounded=0;whiteSpace=wrap;html=1;" parent="1" vertex="1">
          <mxGeometry x="360" y="570" width="120" height="60" as="geometry" />
        </mxCell>
        <mxCell id="nYl2s45a3TRGOCxfImMN-34" value="Rating" style="ellipse;whiteSpace=wrap;html=1;" parent="1" vertex="1">
          <mxGeometry x="540" y="605.25" width="90" height="50" as="geometry" />
        </mxCell>
        <mxCell id="nYl2s45a3TRGOCxfImMN-35" value="Comment" style="ellipse;whiteSpace=wrap;html=1;" parent="1" vertex="1">
          <mxGeometry x="540" y="547.75" width="90" height="50" as="geometry" />
        </mxCell>
        <mxCell id="Ig4KtCtxgGd4tIVDMaJ4-9" value="&lt;u&gt;ID&lt;/u&gt;" style="ellipse;whiteSpace=wrap;html=1;" parent="1" vertex="1">
          <mxGeometry x="220" y="628.82" width="72" height="40" as="geometry" />
        </mxCell>
        <mxCell id="Ig4KtCtxgGd4tIVDMaJ4-10" value="&lt;u&gt;ID&lt;/u&gt;" style="ellipse;whiteSpace=wrap;html=1;" parent="1" vertex="1">
          <mxGeometry x="155.5" y="110" width="70" height="40" as="geometry" />
        </mxCell>
        <mxCell id="yp_OT4ayscLrx89KI9gV-1" value="First Name" style="ellipse;whiteSpace=wrap;html=1;" parent="1" vertex="1">
          <mxGeometry x="524.5" y="110" width="70" height="40" as="geometry" />
        </mxCell>
        <mxCell id="yp_OT4ayscLrx89KI9gV-2" value="Last Name" style="ellipse;whiteSpace=wrap;html=1;" parent="1" vertex="1">
          <mxGeometry x="614.5" y="110" width="70" height="40" as="geometry" />
        </mxCell>
        <mxCell id="yp_OT4ayscLrx89KI9gV-9" value="State Code" style="ellipse;whiteSpace=wrap;html=1;" parent="1" vertex="1">
          <mxGeometry x="540" y="490" width="90" height="50" as="geometry" />
        </mxCell>
        <mxCell id="yp_OT4ayscLrx89KI9gV-10" value="Time Of Day" style="ellipse;whiteSpace=wrap;html=1;" parent="1" vertex="1">
          <mxGeometry x="540" y="780" width="90" height="50" as="geometry" />
        </mxCell>
        <mxCell id="yp_OT4ayscLrx89KI9gV-11" value="End Time" style="ellipse;whiteSpace=wrap;html=1;" parent="1" vertex="1">
          <mxGeometry x="550" y="668" width="70" height="40" as="geometry" />
        </mxCell>
        <mxCell id="yp_OT4ayscLrx89KI9gV-12" value="&lt;div&gt;Average&lt;/div&gt;&lt;div&gt;Heartrate&lt;br&gt;&lt;/div&gt;" style="ellipse;whiteSpace=wrap;html=1;" parent="1" vertex="1">
          <mxGeometry x="540" y="720" width="90" height="50" as="geometry" />
        </mxCell>
      </root>
    </mxGraphModel>
  </diagram>
</mxfile>
